<?xml version="1.0" standalone="no"?>
<!DOCTYPE svg PUBLIC "-//W3C//DTD SVG 20010904//EN"
 "http://www.w3.org/TR/2001/REC-SVG-20010904/DTD/svg10.dtd">
<svg version="1.0" xmlns="http://www.w3.org/2000/svg"
 width="225.000000pt" height="225.000000pt" viewBox="0 0 225.000000 225.000000"
 preserveAspectRatio="xMidYMid meet">

<g transform="translate(0.000000,225.000000) scale(0.100000,-0.100000)"
fill="#fff" stroke="none">
<path d="M1280 1903 c-14 -2 -108 -27 -210 -55 -210 -58 -222 -66 -274 -176
-28 -58 -35 -65 -105 -104 -146 -79 -301 -193 -320 -234 -32 -71 14 -153 86
-154 34 0 53 -21 53 -58 0 -11 -14 -49 -30 -84 -32 -69 -80 -242 -80 -290 0
-61 53 -118 110 -118 31 0 75 26 98 57 l20 28 21 -25 c15 -18 20 -39 21 -78 0
-64 20 -106 58 -123 17 -7 34 -27 44 -51 19 -43 63 -68 120 -68 18 0 80 20
138 44 333 138 410 168 553 215 172 58 192 72 190 138 -1 40 -32 79 -69 86
-14 2 -53 1 -89 -2 -35 -4 -62 -4 -60 0 3 3 32 16 66 29 80 29 109 57 109 108
0 24 -7 46 -19 59 -20 21 -20 21 21 27 113 18 164 88 122 168 -9 17 -22 52
-30 78 -9 30 -24 54 -40 65 l-26 17 47 44 c45 41 47 45 42 85 -3 23 -14 50
-24 61 -24 23 -176 89 -274 118 -41 13 -79 28 -85 34 -6 6 -21 37 -34 69 -34
86 -64 104 -150 90z m-200 -494 c0 -23 -72 -109 -91 -109 -48 0 -26 64 34 100
36 22 57 25 57 9z m394 -89 c14 -5 26 -17 26 -26 0 -8 -27 -44 -60 -79 l-61
-62 38 -7 c21 -3 54 -6 73 -6 l34 0 -22 -22 c-20 -21 -34 -23 -137 -27 -83 -2
-115 0 -115 9 0 24 22 50 87 101 l67 54 -59 5 c-52 4 -60 8 -63 27 -3 19 3 22
55 28 53 6 86 10 105 14 4 0 18 -3 32 -9z m290 -20 c-1 -14 -4 -38 -5 -55 -4
-26 -1 -30 24 -33 34 -4 31 -22 -7 -40 -20 -10 -35 -11 -56 -4 -23 8 -37 6
-76 -14 -55 -28 -86 -30 -108 -8 -61 61 82 188 204 181 20 -2 25 -7 24 -27z
m-520 -36 c30 -12 16 -42 -55 -118 l-71 -76 59 0 c32 0 83 -4 114 -9 31 -5 73
-6 93 -1 45 10 55 -3 19 -27 -22 -14 -59 -19 -192 -25 -91 -4 -177 -8 -191
-10 -20 -2 -26 2 -28 21 -3 20 13 41 85 108 l88 83 -51 0 c-34 0 -56 5 -64 15
-21 25 -1 34 80 38 41 1 80 4 87 5 6 1 18 -1 27 -4z m-492 -24 c77 -22 121
-87 104 -154 -15 -62 -121 -136 -193 -136 -44 0 -42 16 3 30 53 18 114 76 114
109 0 14 -4 31 -8 37 -11 18 -48 34 -76 34 -21 0 -26 -5 -26 -25 0 -23 -116
-337 -146 -397 -9 -16 -23 -28 -34 -28 -17 0 -20 7 -20 39 0 79 76 295 130
371 25 35 25 37 -2 36 -32 -1 -30 32 3 56 23 17 69 34 104 37 6 0 27 -4 47 -9z
m256 -29 c3 -29 -54 -175 -80 -206 -15 -17 -42 23 -41 59 1 40 88 189 107 183
6 -2 12 -18 14 -36z m526 -177 c3 -8 1 -25 -5 -36 -6 -11 -9 -22 -6 -24 2 -2
28 0 57 6 116 22 116 8 0 -35 -41 -16 -79 -32 -84 -37 -6 -4 -24 -49 -42 -99
-32 -89 -32 -91 -11 -86 91 22 267 42 267 30 0 -5 -60 -28 -132 -52 -142 -46
-424 -157 -562 -220 -112 -52 -137 -57 -167 -32 -24 20 -24 20 -4 40 20 20
244 113 435 181 l105 38 7 68 c3 38 11 81 16 95 10 25 8 27 -19 33 -46 9 -35
40 14 44 33 3 43 10 73 53 38 52 48 58 58 33z m-459 -111 c-4 -31 -9 -63 -13
-71 -4 -11 -1 -14 10 -9 27 10 30 -6 4 -27 -15 -13 -32 -48 -45 -93 -13 -45
-29 -76 -40 -83 -29 -15 -45 11 -38 65 4 43 3 45 -17 39 -77 -23 -81 -28 -104
-107 -24 -83 -49 -110 -79 -85 -15 12 -14 77 3 136 5 17 2 22 -13 22 -22 0
-43 18 -43 36 0 7 19 17 43 21 40 8 44 12 84 87 83 154 121 156 73 4 -11 -34
-20 -63 -20 -64 0 0 22 4 50 10 49 10 50 10 76 75 44 113 81 136 69 44z m259
-100 c-4 -54 -9 -100 -11 -103 -6 -7 -36 15 -47 36 -6 10 -12 21 -13 23 -1 2
-21 -13 -43 -33 -34 -31 -47 -37 -78 -34 -33 3 -37 7 -40 32 -2 16 2 49 9 74
10 35 10 45 -1 52 -16 10 -4 30 18 30 32 0 46 -18 51 -64 l6 -46 38 25 c20 14
49 44 62 65 14 22 32 40 40 40 13 0 14 -14 9 -97z"/>
<path d="M1627 1238 c-21 -20 -27 -33 -19 -36 18 -6 76 31 80 51 6 28 -27 20
-61 -15z"/>
</g>
</svg>
